<?xml version="1.0" standalone="no"?>
<!DOCTYPE svg PUBLIC "-//W3C//DTD SVG 20010904//EN"
 "http://www.w3.org/TR/2001/REC-SVG-20010904/DTD/svg10.dtd">
<svg version="1.0" xmlns="http://www.w3.org/2000/svg"
 width="800.000000pt" height="600.000000pt" viewBox="0 0 800.000000 600.000000"
 preserveAspectRatio="xMidYMid meet">

<g transform="translate(0.000000,600.000000) scale(0.100000,-0.100000)"
fill="#000000" stroke="none">
<path d="M3664 4811 c-17 -11 -34 -31 -38 -45 -6 -25 -9 -26 -86 -26 -89 0
-123 -10 -162 -48 -33 -31 -37 -49 -6 -28 30 21 245 22 303 2 45 -16 62 -8 46
22 -16 30 -13 89 5 117 16 24 15 25 -7 25 -13 0 -38 -9 -55 -19z"/>
<path d="M4365 4800 c19 -37 19 -89 0 -116 -8 -12 -12 -24 -8 -28 7 -7 54 3
68 15 17 16 257 11 289 -6 28 -15 28 -15 14 7 -34 51 -64 63 -165 66 -95 4
-95 4 -105 33 -11 31 -53 59 -88 59 -20 0 -20 -1 -5 -30z"/>
<path d="M3873 4805 c-47 -33 -34 -135 16 -135 46 0 64 92 25 130 -18 18 -21
19 -41 5z"/>
<path d="M4176 4804 c-22 -22 -30 -58 -19 -90 20 -59 70 -57 85 3 16 60 -32
122 -66 87z"/>
<path d="M4646 3721 c-3 -14 -8 -46 -12 -71 -35 -240 -244 -480 -478 -552
-125 -38 -256 -12 -390 77 -166 110 -276 276 -313 476 -14 71 -21 89 -34 89
-54 0 -59 -24 -33 -143 53 -235 228 -447 456 -551 115 -52 118 -59 118 -237
l0 -149 85 0 85 0 0 136 c0 179 7 195 107 240 258 118 427 331 479 603 16 83
11 96 -36 103 -25 4 -30 1 -34 -21z"/>
<path d="M3461 2559 c-264 -46 -473 -228 -561 -489 -27 -82 -37 -236 -21 -320
7 -34 10 -64 8 -67 -11 -10 -63 74 -84 136 l-22 66 -1 -56 c-1 -165 104 -377
243 -489 126 -102 262 -150 429 -150 128 0 184 13 298 67 164 79 292 228 351
408 22 67 23 87 27 448 l3 377 63 0 c82 0 164 -22 261 -69 171 -85 294 -253
326 -449 l11 -68 34 4 c31 4 34 7 34 39 0 56 -28 152 -72 243 -76 159 -251
303 -433 356 -52 15 -113 18 -450 20 -214 1 -414 -2 -444 -7z m499 -421 c0
-206 -5 -372 -11 -398 -54 -236 -290 -407 -534 -386 -385 31 -586 436 -397
801 46 90 172 218 259 263 115 61 179 71 446 71 l237 1 0 -352z"/>
<path d="M4768 1740 c-115 -61 -144 -233 -55 -328 78 -84 238 -84 313 0 72 78
72 210 1 286 -58 63 -182 82 -259 42z m178 -65 c70 -46 85 -156 29 -215 -92
-96 -245 -35 -245 98 0 107 127 176 216 117z"/>
</g>
</svg>
